<svg class="hover:text-white text-[#A4A4A4] w-4 h-4 mr-1" width="16" height="16" viewBox="0 0 16 16" fill="currentColor" xmlns="http://www.w3.org/2000/svg">
              <g id="Group">
                <path id="Vector" d="M2.42742 7.17755C2.88001 4.10191 5.7402 1.97552 8.81583 2.42811C9.86518 2.58252 10.8495 3.03026 11.6555 3.71977L10.93 4.44532C10.6868 4.68857 10.6868 5.08292 10.9301 5.3261C11.0469 5.44282 11.2052 5.50842 11.3703 5.50845H14.2265C14.5704 5.50845 14.8493 5.22962 14.8493 4.88565V2.02947C14.8492 1.68551 14.5703 1.40673 14.2263 1.40679C14.0612 1.40682 13.9029 1.47242 13.7862 1.58914L12.9765 2.39877C9.88891 -0.353483 5.1548 -0.0816883 2.40255 3.00586C1.4275 4.09967 0.794753 5.45549 0.582688 6.90538C0.499077 7.41939 0.847973 7.90386 1.36196 7.98748C1.40826 7.99501 1.45503 7.99907 1.50195 7.99965C1.9722 7.99457 2.36693 7.64392 2.42742 7.17755Z" fill="currentColor"></path>
                <path id="Vector_2" d="M14.4957 7.99965C14.0255 8.00473 13.6307 8.35538 13.5702 8.82175C13.1176 11.8974 10.2575 14.0238 7.18182 13.5712C6.13248 13.4168 5.14812 12.9691 4.34213 12.2796L5.06769 11.554C5.31087 11.3108 5.31082 10.9164 5.06754 10.6732C4.9508 10.5565 4.79245 10.4909 4.62736 10.4909H1.77123C1.42727 10.4909 1.14844 10.7697 1.14844 11.1137V13.9699C1.14853 14.3138 1.42741 14.5926 1.77138 14.5925C1.93647 14.5925 2.09482 14.5269 2.21156 14.4102L3.0212 13.6006C6.10801 16.3531 10.8418 16.0822 13.5943 12.9953C14.5699 11.9013 15.203 10.545 15.415 9.09457C15.4989 8.58061 15.1504 8.0959 14.6364 8.01194C14.5899 8.00432 14.5429 8.0002 14.4957 7.99965Z" fill="currentColor"></path>
              </g>
            </svg>