<svg xmlns="http://www.w3.org/2000/svg" width="16" height="16" viewBox="0 0 16 16" fill="none">
                <path d="M6.51176 14.6667C3.65643 14.6667 1.3335 12.3438 1.3335 9.48844C1.3335 6.63324 3.65643 4.3103 6.51176 4.3103C9.36696 4.3103 11.6899 6.63324 11.6899 9.48844C11.6899 12.3438 9.36696 14.6667 6.51176 14.6667ZM6.51176 6.24697C4.7243 6.24697 3.27003 7.7011 3.27003 9.48857C3.27003 11.276 4.72416 12.7303 6.51176 12.7303C8.2991 12.7303 9.7535 11.2762 9.7535 9.48857C9.75336 7.7011 8.2991 6.24697 6.51176 6.24697Z" fill="#F97187"></path>
          <path d="M14.668 6.51164H12.7315V3.26991H9.48975V1.33337H14.668V6.51164Z" fill="#F97187"></path>
          <path d="M13.0142 1.61597L14.3833 2.9851L10.174 7.19439L8.80487 5.82526L13.0142 1.61597Z" fill="#F97187"></path>
        </svg>