<svg width="24" height="24" viewBox="0 0 24 24" fill="none" xmlns="http://www.w3.org/2000/svg">
<g id="fi_10750448" clip-path="url(#clip0_20422_34813)">
<path id="Vector" d="M19.4899 19.4915C14.4479 24.5291 6.52907 24.9339 1.02467 20.7067C0.242673 20.1059 0.189073 18.9419 0.886273 18.2447L18.2431 0.887878C18.9403 0.190678 20.1043 0.243878 20.7051 1.02628C24.9323 6.53068 24.5275 14.4495 19.4899 19.4915Z" fill="#FF5364"/>
<g id="Group">
<path id="Vector_2" d="M15.3123 10.5829C15.6639 10.9345 15.6955 11.4725 15.3831 11.7849C15.0707 12.0973 14.5323 12.0657 14.1811 11.7141C13.8299 11.3625 13.3739 10.4001 13.6863 10.0877C13.9987 9.77527 14.9611 10.2313 15.3127 10.5825L15.3123 10.5829Z" fill="#603E26"/>
<path id="Vector_3" d="M11.3124 17.7992C11.664 18.1508 11.6956 18.6888 11.3832 19.0012C11.0708 19.3136 10.5324 19.282 10.1812 18.9304C9.82955 18.5788 9.37395 17.6164 9.68635 17.304C9.99875 16.9916 10.9612 17.4476 11.3128 17.7988L11.3124 17.7992Z" fill="#603E26"/>
<path id="Vector_4" d="M19.3124 9.79918C19.664 10.1508 19.6956 10.6888 19.3832 11.0012C19.0708 11.3136 18.5324 11.282 18.1812 10.9304C17.8296 10.5788 17.374 9.61638 17.6864 9.30398C17.9988 8.99158 18.9612 9.44758 19.3128 9.79878L19.3124 9.79918Z" fill="#603E26"/>
<path id="Vector_5" d="M18.9139 5.79918C19.2655 6.15078 19.2971 6.68878 18.9847 7.00118C18.6723 7.31358 18.1339 7.28198 17.7827 6.93038C17.4311 6.57878 16.9755 5.61638 17.2879 5.30398C17.6003 4.99158 18.5627 5.44758 18.9143 5.79878L18.9139 5.79918Z" fill="#603E26"/>
<path id="Vector_6" d="M6.92168 17.7914C7.27328 18.143 7.30488 18.681 6.99248 18.9934C6.68008 19.3058 6.14168 19.2742 5.79048 18.9226C5.43928 18.571 4.98328 17.6086 5.29568 17.2962C5.60808 16.9838 6.57048 17.4398 6.92208 17.791L6.92168 17.7914Z" fill="#603E26"/>
<path id="Vector_7" d="M16.5311 14.9994C16.8827 15.351 16.9143 15.889 16.6019 16.2014C16.2895 16.5138 15.7511 16.4822 15.3999 16.1306C15.0487 15.779 14.5927 14.8166 14.9051 14.5042C15.2175 14.1918 16.1799 14.6478 16.5315 14.999L16.5311 14.9994Z" fill="#603E26"/>
<path id="Vector_8" d="M12.1131 13.7992C12.4647 14.1508 12.4963 14.6888 12.1839 15.0012C11.8715 15.3136 11.3331 15.282 10.9819 14.9304C10.6303 14.5788 10.1747 13.6164 10.4871 13.304C10.7995 12.9916 11.7619 13.4476 12.1135 13.7988L12.1131 13.7992Z" fill="#603E26"/>
</g>
<path id="Vector_9" d="M19.4934 19.4918C14.4494 24.5278 6.53336 24.9358 1.02936 20.7078C0.289358 20.1398 0.201358 19.0678 0.781358 18.3638C3.08136 20.6918 6.29736 21.9998 9.56936 21.9998C12.8894 21.9998 16.0134 20.7078 18.3614 18.3598C23.1334 13.5838 23.2734 5.70777 18.3614 0.787765C19.0654 0.199765 20.1414 0.283765 20.7094 1.02776C24.9374 6.53176 24.5294 14.4478 19.4934 19.4918Z" fill="#71C285"/>
</g>
<defs>
<clipPath id="clip0_20422_34813">
<rect width="24" height="24" fill="white"/>
</clipPath>
</defs>
</svg>
